<svg xmlns="http://www.w3.org/2000/svg" fill="none" viewBox="0 0 200 193" height="193" width="200">
<path fill="#46B2FF" d="M186.079 125.411C189.46 125.411 192.199 122.672 192.199 119.292C192.199 115.912 189.46 113.173 186.079 113.173C182.7 113.173 179.96 115.912 179.96 119.292C179.96 122.672 182.7 125.411 186.079 125.411Z"></path>
<path fill="#D15F6B" d="M195.036 101.531C197.343 101.531 199.215 99.6597 199.215 97.3516C199.215 95.0436 197.343 93.1725 195.036 93.1725C192.727 93.1725 190.857 95.0436 190.857 97.3516C190.857 99.6597 192.727 101.531 195.036 101.531Z"></path>
<path fill="#46B2FF" d="M34.0647 26.6399C36.3728 26.6399 38.2438 24.7688 38.2438 22.4608C38.2438 20.1528 36.3728 18.2816 34.0647 18.2816C31.7567 18.2816 29.8856 20.1528 29.8856 22.4608C29.8856 24.7688 31.7567 26.6399 34.0647 26.6399Z"></path>
<path fill="#D15F6B" d="M8.54245 107.237C12.8288 107.237 16.3036 103.762 16.3036 99.4757C16.3036 95.1892 12.8288 91.7145 8.54245 91.7145C4.25606 91.7145 0.78125 95.1892 0.78125 99.4757C0.78125 103.762 4.25606 107.237 8.54245 107.237Z"></path>
<path fill="#FFDA40" d="M162.142 78.2806L166.176 77.0649C166.469 76.9801 166.469 76.556 166.176 76.4712L162.142 75.2555C162.039 75.2272 161.963 75.1518 161.934 75.0482L160.719 71.024C160.634 70.7319 160.21 70.7319 160.125 71.024L158.91 75.0482C158.882 75.1518 158.806 75.2272 158.703 75.2555L154.679 76.4712C154.387 76.556 154.387 76.9801 154.679 77.0649L158.712 78.2806C158.815 78.3088 158.891 78.3843 158.919 78.4879L160.134 82.5215C160.219 82.8136 160.643 82.8136 160.728 82.5215L161.945 78.4879C161.963 78.3843 162.039 78.3088 162.142 78.2806Z"></path>
<path fill="#FFDA40" d="M138.262 34.9976L142.295 33.7819C142.587 33.6972 142.587 33.2731 142.295 33.1884L138.262 31.9727C138.158 31.9443 138.083 31.869 138.054 31.7654L136.839 27.7415C136.754 27.4492 136.33 27.4492 136.245 27.7415L135.029 31.7654C135.001 31.869 134.926 31.9443 134.822 31.9727L130.798 33.1884C130.506 33.2731 130.506 33.6972 130.798 33.7819L134.831 34.9976C134.935 35.0258 135.01 35.1013 135.039 35.2049L136.254 39.2382C136.339 39.5304 136.763 39.5304 136.848 39.2382L138.064 35.2049C138.083 35.1013 138.158 35.0258 138.262 34.9976Z"></path>
<path fill="#FFDA40" d="M77.5999 40.0333L81.1293 38.9697C81.3849 38.8954 81.3849 38.5243 81.1293 38.4502L77.5999 37.3864C77.5093 37.3618 77.4433 37.2958 77.4185 37.2051L76.3548 33.6842C76.2806 33.4287 75.9094 33.4287 75.8352 33.6842L74.7715 37.2051C74.7467 37.2958 74.6808 37.3618 74.5902 37.3864L71.069 38.4502C70.8134 38.5243 70.8134 38.8954 71.069 38.9697L74.5984 40.0333C74.6891 40.0581 74.7551 40.124 74.7797 40.2148L75.8434 43.7439C75.9178 43.9994 76.2888 43.9994 76.363 43.7439L77.4267 40.2148C77.4433 40.124 77.5093 40.0581 77.5999 40.0333Z"></path>
<path fill="#FFDA40" d="M52.2267 104.852L55.7561 103.636C56.0118 103.552 56.0118 103.128 55.7561 103.043L52.2267 101.827C52.1361 101.799 52.0701 101.723 52.0453 101.62L50.9816 97.5957C50.9074 97.3034 50.5362 97.3034 50.4621 97.5957L49.3983 101.62C49.3736 101.723 49.3076 101.799 49.217 101.827L45.6958 103.043C45.4403 103.128 45.4403 103.552 45.6958 103.636L49.2252 104.852C49.3159 104.88 49.3819 104.956 49.4065 105.06L50.4703 109.093C50.5446 109.385 50.9156 109.385 50.9898 109.093L52.0536 105.06C52.0701 104.956 52.1361 104.88 52.2267 104.852Z"></path>
<path fill="#FFDA40" d="M46.5761 58.8861L49.097 58.1263C49.2797 58.0733 49.2797 57.8084 49.097 57.7552L46.5761 56.9955C46.5113 56.9779 46.4642 56.9307 46.4466 56.866L45.6867 54.351C45.6337 54.1685 45.3687 54.1685 45.3157 54.351L44.5558 56.866C44.5382 56.9307 44.491 56.9779 44.4263 56.9955L41.9112 57.7552C41.7287 57.8084 41.7287 58.0733 41.9112 58.1263L44.4322 58.8861C44.497 58.9037 44.544 58.9509 44.5618 59.0157L45.3215 61.5364C45.3746 61.719 45.6396 61.719 45.6927 61.5364L46.4524 59.0157C46.4642 58.9509 46.5113 58.9037 46.5761 58.8861Z"></path>
<path fill="#FFDA40" d="M73.441 83.8207L75.962 83.061C76.1446 83.0079 76.1446 82.743 75.962 82.69L73.441 81.9301C73.3762 81.9125 73.329 81.8654 73.3114 81.8006L72.5516 79.2858C72.4986 79.1031 72.2335 79.1031 72.1805 79.2858L71.4207 81.8006C71.4031 81.8654 71.3559 81.9125 71.2911 81.9301L68.7761 82.69C68.5935 82.743 68.5935 83.0079 68.7761 83.061L71.2971 83.8207C71.3619 83.8384 71.4089 83.8855 71.4267 83.9503L72.1865 86.471C72.2395 86.6536 72.5046 86.6536 72.5576 86.471L73.3174 83.9503C73.329 83.8855 73.3762 83.8384 73.441 83.8207Z"></path>
<path fill="#FFDA40" d="M94.8168 12.789L97.3377 12.0293C97.5204 11.9763 97.5204 11.7112 97.3377 11.6582L94.8168 10.8985C94.7521 10.8808 94.7049 10.8337 94.6873 10.7689L93.9274 8.25406C93.8745 8.07148 93.6094 8.07148 93.5564 8.25406L92.7965 10.7689C92.7789 10.8337 92.7318 10.8808 92.667 10.8985L90.1519 11.6582C89.9694 11.7112 89.9694 11.9763 90.1519 12.0293L92.6728 12.789C92.7377 12.8067 92.7848 12.8538 92.8025 12.9186L93.5622 15.4394C93.6154 15.6219 93.8803 15.6219 93.9334 15.4394L94.6931 12.9186C94.7049 12.8538 94.7521 12.8067 94.8168 12.789Z"></path>
<path fill="#FFDA40" d="M154.552 120.775L157.073 120.015C157.257 119.962 157.257 119.697 157.073 119.644L154.552 118.885C154.488 118.867 154.44 118.82 154.422 118.755L153.663 116.24C153.61 116.058 153.345 116.058 153.293 116.24L152.533 118.755C152.515 118.82 152.467 118.867 152.403 118.885L149.888 119.644C149.704 119.697 149.704 119.962 149.888 120.015L152.409 120.775C152.473 120.793 152.521 120.84 152.539 120.905L153.298 123.426C153.351 123.608 153.616 123.608 153.669 123.426L154.428 120.905C154.44 120.84 154.488 120.793 154.552 120.775Z"></path>
<path fill="#F05767" d="M83.4162 88.0587C77.0689 92.6831 68.7267 99.3931 68.7267 105.287C68.7267 108.739 68.7267 113.653 68.7267 117.132C68.7267 118.538 70.74 119.388 71.9021 118.597C74.9641 116.513 80.2585 114.112 87.8594 114.808C100.735 115.987 85.5925 94.406 85.5925 94.406L83.4162 88.0587Z"></path>
<path fill="#F05767" d="M129.571 88.0587C135.918 92.7739 144.26 99.3931 144.26 105.287C144.26 108.739 144.26 113.653 144.26 117.132C144.26 118.538 142.247 119.388 141.085 118.597C138.023 116.513 132.728 114.112 125.127 114.808C112.251 115.987 127.394 94.406 127.394 94.406L129.571 88.0587Z"></path>
<g filter="url(#filter0_d_956_11051)">
<path fill="url(#paint0_linear_956_11051)" d="M106.448 23.1343C94.4786 31.6579 80.1518 52.6042 82.7815 79.263C85.3204 105.922 87.5873 119.07 92.4839 122.244C97.471 125.417 102.368 126.143 106.448 126.143C110.528 126.143 115.425 125.417 120.412 122.244C125.399 119.07 127.576 105.922 130.115 79.263C132.653 52.6042 118.327 31.6579 106.448 23.1343Z"></path>
</g>
<g filter="url(#filter1_d_956_11051)">
<path fill="url(#paint1_linear_956_11051)" d="M115.515 129.86H97.3803C95.9294 129.86 94.8413 128.682 94.8413 127.321V122.878H118.145V127.231C118.054 128.682 116.876 129.86 115.515 129.86Z"></path>
</g>
<path fill="#F05767" d="M107.718 86.6078H105.179V120.067H107.718V86.6078Z"></path>
<path stroke-miterlimit="10" stroke-width="4" stroke="#A4475F" fill="#F05767" d="M106.448 68.3818C111.406 68.3818 115.425 64.3627 115.425 59.4049C115.425 54.447 111.406 50.4279 106.448 50.4279C101.49 50.4279 97.4712 54.447 97.4712 59.4049C97.4712 64.3627 101.49 68.3818 106.448 68.3818Z"></path>
<path fill="#CE6300" d="M118.871 147.18C118.871 154.524 112.977 191.339 105.632 191.339C98.2873 191.339 92.3934 154.524 92.3934 147.18C92.3934 139.835 98.2873 133.941 105.632 133.941C112.977 133.941 118.871 139.926 118.871 147.18Z"></path>
<path fill="#FFC700" d="M105.632 174.382C103.003 168.761 100.01 153.164 100.01 148.177C100.01 145.094 102.549 142.555 105.632 142.555C108.715 142.555 111.254 145.094 111.254 148.177C111.254 153.164 108.262 168.67 105.632 174.382Z"></path>
<defs>
<filter color-interpolation-filters="sRGB" filterUnits="userSpaceOnUse" height="147.008" width="91.9441" y="12.1343" x="60.4659" id="filter0_d_956_11051">
<feFlood result="BackgroundImageFix" flood-opacity="0"></feFlood>
<feColorMatrix result="hardAlpha" values="0 0 0 0 0 0 0 0 0 0 0 0 0 0 0 0 0 0 127 0" type="matrix" in="SourceAlpha"></feColorMatrix>
<feOffset dy="11"></feOffset>
<feGaussianBlur stdDeviation="11"></feGaussianBlur>
<feColorMatrix values="0 0 0 0 0.397708 0 0 0 0 0.47749 0 0 0 0 0.575 0 0 0 0.27 0" type="matrix"></feColorMatrix>
<feBlend result="effect1_dropShadow_956_11051" in2="BackgroundImageFix" mode="normal"></feBlend>
<feBlend result="shape" in2="effect1_dropShadow_956_11051" in="SourceGraphic" mode="normal"></feBlend>
</filter>
<filter color-interpolation-filters="sRGB" filterUnits="userSpaceOnUse" height="50.9821" width="67.3038" y="111.878" x="72.8413" id="filter1_d_956_11051">
<feFlood result="BackgroundImageFix" flood-opacity="0"></feFlood>
<feColorMatrix result="hardAlpha" values="0 0 0 0 0 0 0 0 0 0 0 0 0 0 0 0 0 0 127 0" type="matrix" in="SourceAlpha"></feColorMatrix>
<feOffset dy="11"></feOffset>
<feGaussianBlur stdDeviation="11"></feGaussianBlur>
<feColorMatrix values="0 0 0 0 0.397708 0 0 0 0 0.47749 0 0 0 0 0.575 0 0 0 0.27 0" type="matrix"></feColorMatrix>
<feBlend result="effect1_dropShadow_956_11051" in2="BackgroundImageFix" mode="normal"></feBlend>
<feBlend result="shape" in2="effect1_dropShadow_956_11051" in="SourceGraphic" mode="normal"></feBlend>
</filter>
<linearGradient gradientUnits="userSpaceOnUse" y2="127.253" x2="106.422" y1="20.7516" x1="106.422" id="paint0_linear_956_11051">
<stop stop-color="#FDFEFF"></stop>
<stop stop-color="#D3E7FF" offset="0.9964"></stop>
</linearGradient>
<linearGradient gradientUnits="userSpaceOnUse" y2="129.936" x2="106.486" y1="122.717" x1="106.486" id="paint1_linear_956_11051">
<stop stop-color="#FDFEFF"></stop>
<stop stop-color="#ECF0F5" offset="0.9964"></stop>
</linearGradient>
</defs>
</svg>
